<svg width="16" height="21" viewBox="0 0 16 21" fill="none" xmlns="http://www.w3.org/2000/svg">
<path d="M7.17651 8.99097C8.05151 8.53784 8.94604 8.31128 9.86011 8.31128C10.7742 8.31128 11.5593 8.45581 12.2156 8.74487C12.8796 9.02612 13.4617 9.43237 13.9617 9.96362C15.0476 11.1433 15.5906 12.6355 15.5906 14.4402C15.5906 16.4167 15.0007 18.0105 13.821 19.2214C12.6882 20.3855 11.2781 20.9675 9.59058 20.9675C8.1062 20.9675 6.88354 20.5808 5.92261 19.8074C4.84448 18.9324 4.30542 17.7253 4.30542 16.1863V3.35425H7.17651V8.99097ZM7.17651 16.1511C7.17651 17.5261 8.03198 18.2136 9.74292 18.2136C10.5789 18.2136 11.282 17.8464 11.8523 17.1121C12.4304 16.3621 12.7195 15.4285 12.7195 14.3113C12.7195 13.1863 12.4148 12.3386 11.8054 11.7683C11.2585 11.2605 10.5242 11.0066 9.60229 11.0066C9.04761 11.0066 8.43433 11.1941 7.76245 11.5691C7.55151 11.6863 7.3562 11.8152 7.17651 11.9558V16.1511Z" fill="#DEDEDE"/>
<path d="M7.26611 3.4873C6.88202 3.4873 7.16869 3.48901 5.614 3.48901C4.05932 3.48901 3.99658 3.48901 3.99658 3.48901H1.67627C0.98877 3.48901 0.58252 3.52417 0.45752 3.59448C0.33252 3.66479 0.234863 3.72729 0.164551 3.78198L0.129395 3.77026V0.770264L0.164551 0.735107C0.422363 0.821045 1.11768 0.864014 2.25049 0.864014H9.59814C10.2856 0.864014 10.6919 0.828857 10.8169 0.758545C10.9419 0.688232 11.0396 0.625732 11.1099 0.571045L11.145 0.582764V3.58276L11.1099 3.61792C10.8521 3.53198 10.1567 3.48901 9.02393 3.48901H7.26611V3.4873Z" fill="#DEDEDE"/>
</svg>
