<svg width="17" height="21" viewBox="0 0 17 21" fill="none" xmlns="http://www.w3.org/2000/svg">
<path d="M7.85303 8.99097C8.72803 8.53784 9.62256 8.31128 10.5366 8.31128C11.4507 8.31128 12.2358 8.45581 12.8921 8.74487C13.5562 9.02612 14.1382 9.43237 14.6382 9.96362C15.7241 11.1433 16.2671 12.6355 16.2671 14.4402C16.2671 16.4167 15.6772 18.0105 14.4976 19.2214C13.3647 20.3855 11.9546 20.9675 10.2671 20.9675C8.78271 20.9675 7.56006 20.5808 6.59912 19.8074C5.521 18.9324 4.98193 17.7253 4.98193 16.1863V3.35425H7.85303V8.99097ZM7.85303 16.1511C7.85303 17.5261 8.7085 18.2136 10.4194 18.2136C11.2554 18.2136 11.9585 17.8464 12.5288 17.1121C13.1069 16.3621 13.396 15.4285 13.396 14.3113C13.396 13.1863 13.0913 12.3386 12.4819 11.7683C11.9351 11.2605 11.2007 11.0066 10.2788 11.0066C9.72412 11.0066 9.11084 11.1941 8.43896 11.5691C8.22803 11.6863 8.03271 11.8152 7.85303 11.9558V16.1511Z" fill="#222222"/>
<path d="M7.94263 3.4873C7.55853 3.4873 7.8452 3.48901 6.29052 3.48901C4.73583 3.48901 4.6731 3.48901 4.6731 3.48901H2.35278C1.66528 3.48901 1.25903 3.52417 1.13403 3.59448C1.00903 3.66479 0.911377 3.72729 0.841064 3.78198L0.805908 3.77026V0.770264L0.841064 0.735107C1.09888 0.821045 1.79419 0.864014 2.927 0.864014H10.2747C10.9622 0.864014 11.3684 0.828857 11.4934 0.758545C11.6184 0.688232 11.7161 0.625732 11.7864 0.571045L11.8215 0.582764V3.58276L11.7864 3.61792C11.5286 3.53198 10.8333 3.48901 9.70044 3.48901H7.94263V3.4873Z" fill="#222222"/>
</svg>
